#!OML:ASF H:\LiuWeirdWalks\Patient Classification 1\Patient 1\Session 1\male.ASF
:FULLY-SPECIFIED
:DEGREES
910
root 2.56559 18.0278 13.2145 0.156759 10.8288 4.13978
lowerback 4.72134 0.466344 -7.87049
upperback 0.327648 0.222952 0.765949
thorax -2.34724 0.196516 5.20779
lowerneck -11.9117 0.0448197 5.71504
upperneck 21.9357 0.602791 -7.49229
head 8.83292 -0.0121091 -3.45367
rclavicle 5.82688e-015 1.39149e-014
rhumerus -40.4405 -12.5643 -72.9543
rradius 32.1048
rwrist -8.70542
rhand -15.6887 -3.09467
rfingers 7.12502
rthumb 10.5004 -32.8124
lclavicle 5.82688e-015 1.39149e-014
lhumerus -42.9312 1.60676 83.2089
lradius 34.535
lwrist 11.299
lhand -14.8587 -2.01641
lfingers 7.12502
lthumb 11.301 27.6591
rfemur -37.2601 -10.7027 9.65649
rtibia 40.514
rfoot -2.73532 -17.6778
rtoes -11.2511
lfemur 2.8224 -5.71398 -29.4029
ltibia 18.2322
lfoot -11.5072 7.70086
ltoes -8.97473
911
root 2.56078 18.0307 13.2645 0.125903 11 4.19515
lowerback 4.68105 0.470293 -7.91106
upperback 0.334915 0.229324 0.741765
thorax -2.31805 0.198594 5.20493
lowerneck -11.8158 0.0474309 5.75845
upperneck 21.9406 0.609795 -7.52249
head 8.81712 -0.00636079 -3.46989
rclavicle 1.75552e-014 5.96354e-015
rhumerus -40.5139 -12.697 -72.8579
rradius 31.7807
rwrist -8.49516
rhand -15.6624 -2.99427
rfingers 7.12502
rthumb 10.5258 -32.7107
lclavicle 1.75552e-014 5.96354e-015
lhumerus -43.016 1.634 83.1772
lradius 34.5786
lwrist 11.2994
lhand -14.8377 -2.04622
lfingers 7.12502
lthumb 11.3213 27.6282
rfemur -37.3476 -10.6473 9.55559
rtibia 39.8029
rfoot -1.68451 -17.8233
rtoes -11.2241
lfemur 3.18433 -5.82344 -29.4394
ltibia 17.9482
lfoot -11.3962 7.6119
ltoes -9.16585
912
root 2.55628 18.0341 13.3148 0.086316 11.1616 4.21987
lowerback 4.64325 0.482875 -7.90728
upperback 0.347805 0.249753 0.725523
thorax -2.28631 0.206986 5.18436
lowerneck -11.7445 0.0429094 5.77488
upperneck 21.9598 0.60805 -7.53457
head 8.81012 -0.00547339 -3.47679
rclavicle -4.02539e-015 9.93923e-015
rhumerus -40.5829 -12.8449 -72.7524
rradius 31.4844
rwrist -8.27604
rhand -15.6328 -2.92378
rfingers 7.12502
rthumb 10.5544 -32.6388
lclavicle -4.02539e-015 9.93923e-015
lhumerus -43.0675 1.67743 83.1466
lradius 34.5699
lwrist 11.2517
lhand -14.7993 -2.11714
lfingers 7.12502
lthumb 11.3583 27.5553
rfemur -37.4127 -10.5894 9.49055
rtibia 39.1337
rfoot -0.667963 -17.9492
rtoes -11.2135
lfemur 3.54817 -5.94152 -29.4483
ltibia 17.6765
lfoot -11.2797 7.55336
ltoes -9.37178
913
root 2.55167 18.0379 13.3654 0.041249 11.3082 4.2092
lowerback 4.62528 0.650085 -7.7579
upperback 0.400443 0.484324 0.744132
thorax -2.25498 0.319743 5.1036
lowerneck -11.9216 -0.125581 5.39175
upperneck 22.0901 0.413453 -7.35594
head 8.87331 -0.11242 -3.37541
rclavicle 3.78933e-014 1.43125e-014
rhumerus -40.697 -13.3127 -72.3473
rradius 31.261
rwrist -8.09468
rhand -15.5906 -2.9352
rfingers 7.12502
rthumb 10.5951 -32.6481
lclavicle 3.78933e-014 1.43125e-014
lhumerus -42.9234 1.41224 83.4246
lradius 34.4881
lwrist 11.1673
lhand -14.7565 -2.16252
lfingers 7.12502
lthumb 11.3996 27.5076
rfemur -37.4601 -10.5064 9.46145
rtibia 38.5025
rfoot 0.262946 -18.0664
rtoes -11.2167
lfemur 3.90396 -6.05186 -29.4192
ltibia 17.4225
lfoot -11.1671 7.50797
ltoes -9.58544
914
root 2.54653 18.042 13.4162 -0.00611197 11.4445 4.17892
lowerback 4.6094 0.826667 -7.57987
upperback 0.422194 0.731282 0.760229
thorax -2.25736 0.440733 5.00297
lowerneck -11.9638 -0.319177 4.98001
upperneck 22.2083 0.18767 -7.14017
head 8.90636 -0.230149 -3.25807
rclavicle 1.05604e-015 -3.18055e-015
rhumerus -40.9034 -13.7587 -71.9406
rradius 31.1053
rwrist -7.94251
rhand -15.5471 -3.00675
rfingers 7.12502
rthumb 10.6371 -32.7175
lclavicle 1.05604e-015 -3.18055e-015
lhumerus -42.8442 1.10437 83.7066
lradius 34.4012
lwrist 11.0752
lhand -14.732 -2.21119
lfingers 7.12502
lthumb 11.4232 27.4576
rfemur -37.488 -10.3943 9.44809
rtibia 37.9073
rfoot 1.09774 -18.1784
rtoes -11.2167
lfemur 4.24632 -6.16074 -29.3686
ltibia 17.1924
lfoot -11.0527 7.47765
ltoes -9.80538
915
root 2.54197 18.0463 13.4673 -0.0514575 11.5822 4.14331
lowerback 4.59216 0.98911 -7.3954
upperback 0.456557 0.96024 0.777875
thorax -2.24185 0.551685 4.90154
lowerneck -12.0388 -0.500981 4.57786
upperneck 22.3047 -0.0237878 -6.9335
head 8.94069 -0.341891 -3.14401
rclavicle -3.64024e-015 2.78299e-015
rhumerus -41.0667 -14.1656 -71.5738
rradius 30.9764
rwrist -7.80925
rhand -15.5075 -3.11849
rfingers 7.12502
rthumb 10.6752 -32.8273
lclavicle -3.64024e-015 2.78299e-015
lhumerus -42.7584 0.813796 83.9821
lradius 34.3306
lwrist 11.0177
lhand -14.7113 -2.25159
lfingers 7.12502
lthumb 11.4432 27.4161
rfemur -37.498 -10.2832 9.43251
rtibia 37.3487
rfoot 1.83404 -18.2582
rtoes -11.2203
lfemur 4.58102 -6.26986 -29.3158
ltibia 16.9768
lfoot -10.9352 7.45593
ltoes -10.0327
916
root 2.53677 18.0511 13.5184 -0.0845708 11.7127 4.09816
lowerback 4.55835 1.0915 -7.25432
upperback 0.482591 1.10786 0.794588
thorax -2.21406 0.622325 4.82953
lowerneck -12.0686 -0.615537 4.30371
upperneck 22.3694 -0.155147 -6.78634
head 8.96148 -0.410999 -3.06253
rclavicle -8.82107e-015 9.14409e-015
rhumerus -41.177 -14.4234 -71.3422
rradius 30.8586
rwrist -7.68195
rhand -15.4829 -3.23008
rfingers 7.12502
rthumb 10.699 -32.9377
lclavicle -8.82107e-015 9.14409e-015
lhumerus -42.7311 0.636746 84.1572
lradius 34.2922
lwrist 11.0033
lhand -14.6972 -2.25593
lfingers 7.12502
lthumb 11.4567 27.411
rfemur -37.5064 -10.1382 9.41991
rtibia 36.8271
rfoot 2.46504 -18.337
rtoes -11.1995
lfemur 4.89743 -6.36594 -29.2473
ltibia 16.7628
lfoot -10.8067 7.42996
ltoes -10.2488
917
root 2.53163 18.0565 13.5704 -0.10999 11.8484 4.06382
lowerback 4.48385 1.06477 -7.21568
upperback 0.476278 1.07991 0.79417
thorax -2.1742 0.606762 4.81008
lowerneck -11.8823 -0.585746 4.37233
upperneck 22.3207 -0.11525 -6.82201
head 8.9119 -0.387125 -3.07858
rclavicle -2.38914e-014 -1.59028e-014
rhumerus -41.2399 -14.3917 -71.3645
rradius 30.7316
rwrist -7.56582
rhand -15.4865 -3.32355
rfingers 7.12502
rthumb 10.6955 -33.0313
lclavicle -2.38914e-014 -1.59028e-014
lhumerus -42.8755 0.704681 84.1014
lradius 34.3096
lwrist 11.0355
lhand -14.6836 -2.25496
lfingers 7.12502
lthumb 11.4699 27.4113
rfemur -37.5013 -9.99327 9.38689
rtibia 36.3394
rfoot 3.00327 -18.3957
rtoes -11.1714
lfemur 5.21554 -6.45612 -29.1891
ltibia 16.5436
lfoot -10.6704 7.39619
ltoes -10.4373
918
root 2.5269 18.062 13.623 -0.127584 11.9944 4.05254
lowerback 4.38754 0.820973 -7.34901
upperback 0.447582 0.754467 0.756649
thorax -2.10646 0.443715 4.86887
lowerneck -11.5321 -0.314463 4.9741
upperneck 22.1827 0.209483 -7.11609
head 8.81811 -0.209673 -3.24055
rclavicle 2.43138e-014 -2.78299e-015
rhumerus -41.127 -13.9281 -71.8267
rradius 30.5312
rwrist -7.39209
rhand -15.5042 -3.32511
rfingers 7.12502
rthumb 10.6785 -33.0337
lclavicle 2.43138e-014 -2.78299e-015
lhumerus -43.2125 1.23342 83.6256
lradius 34.4029
lwrist 11.1018
lhand -14.6698 -2.23961
lfingers 7.12502
lthumb 11.4832 27.4259
rfemur -37.4799 -9.87027 9.32529
rtibia 35.8773
rfoot 3.48579 -18.4183
rtoes -11.1311
lfemur 5.53154 -6.53716 -29.1542
ltibia 16.3297
lfoot -10.5349 7.34839
ltoes -10.6077
919
root 2.52165 18.0678 13.6759 -0.131744 12.1448 4.04779
lowerback 4.30976 0.5876 -7.48377
upperback 0.411776 0.441326 0.718557
thorax -2.05716 0.287646 4.92561
lowerneck -11.2166 -0.0518297 5.58067
upperneck 22.0541 0.526678 -7.42123
head 8.73704 -0.0365771 -3.40962
rclavicle 1.39895e-014 -7.95139e-015
rhumerus -41.0211 -13.4812 -72.2703
rradius 30.3555
rwrist -7.24195
rhand -15.5236 -3.33945
rfingers 7.12502
rthumb 10.6597 -33.0491
lclavicle 1.39895e-014 -7.95139e-015
lhumerus -43.5442 1.73538 83.1669
lradius 34.4767
lwrist 11.1524
lhand -14.6544 -2.23226
lfingers 7.12502
lthumb 11.498 27.4324
rfemur -37.4537 -9.7477 9.25528
rtibia 35.4326
rfoot 3.90816 -18.4385
rtoes -11.0895
lfemur 5.8317 -6.59869 -29.1157
ltibia 16.1191
lfoot -10.3931 7.27232
ltoes -10.7851
920
root 2.5154 18.0738 13.7282 -0.11779 12.2942 4.04333
lowerback 4.25836 0.398842 -7.61564
upperback 0.468287 0.190034 0.715163
thorax -1.93449 0.15691 5.0122
lowerneck -11.3514 0.184776 6.01365
upperneck 22.0399 0.813723 -7.65884
head 8.78002 0.107228 -3.53689
rclavicle 2.34566e-014 2.22639e-014
rhumerus -40.6981 -13.1606 -72.637
rradius 30.1725
rwrist -7.09229
rhand -15.5418 -3.35325
rfingers 7.12502
rthumb 10.6421 -33.0638
lclavicle 2.34566e-014 2.22639e-014
lhumerus -43.6056 2.2368 82.8195
lradius 34.4744
lwrist 11.1325
lhand -14.6428 -2.25015
lfingers 7.12502
lthumb 11.5092 27.4139
rfemur -37.4313 -9.60505 9.18332
rtibia 34.9964
rfoot 4.28747 -18.4867
rtoes -11.0492
lfemur 6.09712 -6.64465 -29.0626
ltibia 15.9238
lfoot -10.2502 7.16668
ltoes -10.9651
921
root 2.50848 18.0803 13.7811 -0.0958061 12.4562 4.04235
lowerback 4.23625 0.372433 -7.64395
upperback 0.55162 0.159261 0.746387
thorax -1.83112 0.13534 5.06273
lowerneck -11.746 0.239295 5.98231
upperneck 22.162 0.884752 -7.66675
head 8.90155 0.130228 -3.53367
rclavicle -4.27139e-014 2.38542e-015
rhumerus -40.4433 -13.1654 -72.6616
rradius 30.0493
rwrist -6.99746
rhand -15.5467 -3.36529
rfingers 7.12502
rthumb 10.6374 -33.076
lclavicle -4.27139e-014 2.38542e-015
lhumerus -43.4839 2.4014 82.8184
lradius 34.3982
lwrist 11.0576
lhand -14.6262 -2.27215
lfingers 7.12502
lthumb 11.5253 27.391
rfemur -37.3926 -9.46534 9.10439
rtibia 34.5634
rfoot 4.63121 -18.5667
rtoes -11.0074
lfemur 6.34499 -6.68312 -28.9991
ltibia 15.7442
lfoot -10.1225 7.02403
ltoes -11.169
